<svg width="72" height="72" viewBox="0 0 72 72" fill="none" xmlns="http://www.w3.org/2000/svg">
<g clip-path="url(#clip0_9114_34342)">
<path d="M52.0718 31.3232L61.2765 33.4271" stroke="#6A6A6A" stroke-width="2" stroke-miterlimit="10" stroke-linecap="round" stroke-linejoin="round"/>
<path d="M10.7236 33.427L19.9107 31.3271" stroke="#6A6A6A" stroke-width="2" stroke-miterlimit="10" stroke-linecap="round" stroke-linejoin="round"/>
<path d="M25.5596 23.3949L28.1532 23.018C28.7393 22.9329 29.2461 22.5647 29.5082 22.0334L34.3858 12.1507C35.046 10.8131 36.9534 10.8131 37.6137 12.1507L42.4912 22.0336C42.7533 22.5647 43.2601 22.9329 43.8462 23.0181L54.7527 24.6029C56.2289 24.8175 56.8183 26.6315 55.7501 27.6728L47.858 35.3656C47.523 35.6922 47.3318 36.1326 47.3157 36.5909" stroke="#6A6A6A" stroke-width="2" stroke-miterlimit="10" stroke-linecap="round" stroke-linejoin="round"/>
<path d="M24.6844 36.6049C24.6716 36.1415 24.48 35.6957 24.1416 35.3658L16.2496 27.6729C15.1814 26.6318 15.7708 24.8176 17.247 24.6031L20.7589 24.0928" stroke="#6A6A6A" stroke-width="2" stroke-miterlimit="10" stroke-linecap="round" stroke-linejoin="round"/>
<path d="M18.0798 66.8846L11.8461 65.4597C11.1893 65.3096 10.7236 64.7254 10.7236 64.0517V44.8486" stroke="#6A6A6A" stroke-width="2" stroke-miterlimit="10" stroke-linecap="round" stroke-linejoin="round"/>
<path d="M61.2764 44.8936V64.0517C61.2764 64.7253 60.8107 65.3097 60.1539 65.4598L36.3134 70.9091C36.107 70.9562 35.8927 70.9562 35.6865 70.9091L22.8706 67.9798" stroke="#6A6A6A" stroke-width="2" stroke-miterlimit="10" stroke-linecap="round" stroke-linejoin="round"/>
<path d="M36 59.0146V70.7702" stroke="#6A6A6A" stroke-width="2" stroke-miterlimit="10" stroke-linecap="round" stroke-linejoin="round"/>
<path d="M36 39.2051V54.0904" stroke="#6A6A6A" stroke-width="2" stroke-miterlimit="10" stroke-linecap="round" stroke-linejoin="round"/>
<path d="M55.2964 46.1867L70.5927 42.7441L61.2766 33.4277L36 39.2053L10.7234 33.4277L1.40723 42.7441L26.756 48.4493L36 39.2053" stroke="#6A6A6A" stroke-width="2" stroke-miterlimit="10" stroke-linecap="round" stroke-linejoin="round"/>
<path d="M36 39.2051L45.244 48.4491L50.5183 47.262" stroke="#6A6A6A" stroke-width="2" stroke-miterlimit="10" stroke-linecap="round" stroke-linejoin="round"/>
<path d="M36 1.05566V5.38882" stroke="#6A6A6A" stroke-width="2" stroke-miterlimit="10" stroke-linecap="round" stroke-linejoin="round"/>
<path d="M36 1.05566V5.38882" stroke="#6A6A6A" stroke-width="2" stroke-miterlimit="10" stroke-linecap="round" stroke-linejoin="round"/>
<path d="M47.6837 10.2285L44.8984 13.548" stroke="#6A6A6A" stroke-width="2" stroke-miterlimit="10" stroke-linecap="round" stroke-linejoin="round"/>
<path d="M47.6837 10.2285L44.8984 13.548" stroke="#6A6A6A" stroke-width="2" stroke-miterlimit="10" stroke-linecap="round" stroke-linejoin="round"/>
<path d="M60.4878 15.0088L57.1685 17.7941" stroke="#6A6A6A" stroke-width="2" stroke-miterlimit="10" stroke-linecap="round" stroke-linejoin="round"/>
<path d="M60.4878 15.0088L57.1685 17.7941" stroke="#6A6A6A" stroke-width="2" stroke-miterlimit="10" stroke-linecap="round" stroke-linejoin="round"/>
<path d="M24.3164 10.2285L27.1016 13.548" stroke="#6A6A6A" stroke-width="2" stroke-miterlimit="10" stroke-linecap="round" stroke-linejoin="round"/>
<path d="M24.3164 10.2285L27.1016 13.548" stroke="#6A6A6A" stroke-width="2" stroke-miterlimit="10" stroke-linecap="round" stroke-linejoin="round"/>
<path d="M11.5122 15.0088L14.8315 17.7941" stroke="#6A6A6A" stroke-width="2" stroke-miterlimit="10" stroke-linecap="round" stroke-linejoin="round"/>
<path d="M11.5122 15.0088L14.8315 17.7941" stroke="#6A6A6A" stroke-width="2" stroke-miterlimit="10" stroke-linecap="round" stroke-linejoin="round"/>
</g>
<defs>
<clipPath id="clip0_9114_34342">
<rect width="72" height="72" fill="white"/>
</clipPath>
</defs>
</svg>
