<svg width="17" height="17" viewBox="0 0 17 17" fill="none" xmlns="http://www.w3.org/2000/svg">
<g clip-path="url(#clip0_8883_10344)">
<path d="M14.6964 7.35059H16.7946V9.4488H14.6964V7.35059Z" fill="#F3F3F3"/>
<path d="M10.4991 7.35059H12.5974V9.4488H10.4991V7.35059Z" fill="#F3F3F3"/>
<path d="M12.5978 7.35059H14.696V9.4488H12.5978V7.35059Z" fill="#F3F3F3"/>
<path d="M6.30188 7.35059H8.4001V9.4488H6.30188V7.35059Z" fill="#F3F3F3"/>
<path d="M8.40052 7.35059H10.4987V9.4488H8.40052V7.35059Z" fill="#F3F3F3"/>
<path d="M2.10462 7.35059H4.20283V9.4488H2.10462V7.35059Z" fill="#F3F3F3"/>
<path d="M4.20325 7.35059H6.30146V9.4488H4.20325V7.35059Z" fill="#F3F3F3"/>
<path d="M0.00598407 7.35059H2.1042V9.4488H0.00598407V7.35059Z" fill="#F3F3F3"/>
<path d="M2.10462 5.25195H4.20283V7.35017H2.10462V5.25195Z" fill="#F3F3F3"/>
<path d="M2.10462 9.44922H4.20283V11.5474H2.10462V9.44922Z" fill="#F3F3F3"/>
<path d="M4.20325 3.15332H6.30146V5.25153H4.20325V3.15332Z" fill="#F3F3F3"/>
<path d="M4.20325 11.5479H6.30146V13.6461H4.20325V11.5479Z" fill="#F3F3F3"/>
<path d="M6.30188 1.05469H8.4001V3.1529H6.30188V1.05469Z" fill="#F3F3F3"/>
<path d="M6.30188 13.6465H8.4001V15.7447H6.30188V13.6465Z" fill="#F3F3F3"/>
</g>
<defs>
<clipPath id="clip0_8883_10344">
<rect width="16.8" height="14.6902" fill="white" transform="matrix(-1 0 0 1 16.8 1.05469)"/>
</clipPath>
</defs>
</svg>
