<svg width="18" height="19" viewBox="0 0 18 19" fill="none" xmlns="http://www.w3.org/2000/svg">
<path d="M11.828 5.87724L7.04046 5.50034C6.92845 5.49156 6.8159 5.50807 6.71114 5.54863C6.60636 5.58918 6.51204 5.65277 6.43514 5.73467L3.3569 9.01711L3.30272 9.08146C3.2224 9.18901 3.1724 9.31606 3.15794 9.44949C3.14347 9.58291 3.16507 9.71776 3.22049 9.84001C3.2759 9.96226 3.3631 10.0674 3.47298 10.1444C3.58287 10.2215 3.71141 10.2677 3.84521 10.2781L8.03483 10.6073L8.63266 14.7666C8.65268 14.9064 8.71178 15.0378 8.80321 15.1455C8.89463 15.2532 9.01456 15.3329 9.14926 15.3754C9.28396 15.4179 9.42796 15.4216 9.56461 15.3859C9.70133 15.3501 9.82508 15.2765 9.92183 15.1736L13.0001 11.8911C13.0769 11.8091 13.1342 11.711 13.168 11.6038C13.2017 11.4966 13.211 11.3832 13.1951 11.2721L12.5118 6.51853C12.4877 6.34986 12.4067 6.19443 12.2825 6.07787C12.1582 5.9613 11.9979 5.89054 11.828 5.87724Z" fill="#FAFAFA"/>
</svg>
