<svg width="17" height="17" viewBox="0 0 17 17" fill="none" xmlns="http://www.w3.org/2000/svg">
<g clip-path="url(#clip0_8883_10363)">
<path d="M2.10359 7.35059H0.00537109V9.4488H2.10359V7.35059Z" fill="#F3F3F3"/>
<path d="M6.30085 7.35059H4.20264V9.4488H6.30085V7.35059Z" fill="#F3F3F3"/>
<path d="M4.20222 7.35059H2.104V9.4488H4.20222V7.35059Z" fill="#F3F3F3"/>
<path d="M10.4981 7.35059H8.3999V9.4488H10.4981V7.35059Z" fill="#F3F3F3"/>
<path d="M8.39948 7.35059H6.30127V9.4488H8.39948V7.35059Z" fill="#F3F3F3"/>
<path d="M14.6954 7.35059H12.5972V9.4488H14.6954V7.35059Z" fill="#F3F3F3"/>
<path d="M12.5967 7.35059H10.4985V9.4488H12.5967V7.35059Z" fill="#F3F3F3"/>
<path d="M16.794 7.35059H14.6958V9.4488H16.794V7.35059Z" fill="#F3F3F3"/>
<path d="M14.6954 5.25195H12.5972V7.35017H14.6954V5.25195Z" fill="#F3F3F3"/>
<path d="M14.6954 9.44922H12.5972V11.5474H14.6954V9.44922Z" fill="#F3F3F3"/>
<path d="M12.5967 3.15332H10.4985V5.25153H12.5967V3.15332Z" fill="#F3F3F3"/>
<path d="M12.5967 11.5479H10.4985V13.6461H12.5967V11.5479Z" fill="#F3F3F3"/>
<path d="M10.4981 1.05469H8.3999V3.1529H10.4981V1.05469Z" fill="#F3F3F3"/>
<path d="M10.4981 13.6465H8.3999V15.7447H10.4981V13.6465Z" fill="#F3F3F3"/>
</g>
<defs>
<clipPath id="clip0_8883_10363">
<rect width="16.8" height="14.6902" fill="white" transform="translate(0 1.05469)"/>
</clipPath>
</defs>
</svg>
